<?xml version="1.0" encoding="utf-8"?>
<!-- Generator: Adobe Illustrator 28.1.0, SVG Export Plug-In . SVG Version: 6.00 Build 0)  -->
<svg version="1.1" id="katman_1" xmlns="http://www.w3.org/2000/svg" xmlns:xlink="http://www.w3.org/1999/xlink" x="0px" y="0px"
	 viewBox="0 0 396.3 191.3" style="enable-background:new 0 0 396.3 191.3;" xml:space="preserve">
<style type="text/css">
	.st0{fill:#0C0C0C;}
	.st1{fill:#ED1B76;}
</style>
<path class="st0" d="M208.5,0c3.2,0,6.5,0,9.7,0c-0.2,22.1,0,44.3-0.1,66.4c-0.2,14.9-13.9,27.7-28.7,27.2
	c-14.5,0.1-27.5-12.6-28-27.1c-0.1-10.3,0-20.6-0.1-30.9c3.3,0,6.5,0,9.8,0c0.1,9.8,0,19.6,0,29.4c-0.1,6.7,3.3,13,9.1,16.4
	c7.3,4.4,17.6,3,23.3-3.5c3.6-3.8,5-9.1,4.9-14.3C208.5,42.4,208.6,21.2,208.5,0z"/>
<path class="st0" d="M27.6,46.9c2.6-6.8,9.1-11.3,16.3-11.3c12.5-0.1,25,0,37.6,0c0,2.9,0.1,5.8,0.1,8.6c-12.1,0.1-24.2,0-36.3,0
	c-4.2-0.4-8.1,2.2-9.3,6.2c-1,4,2.4,8.2,6.5,8.4c9.7,0.5,19.4-0.4,29.1,0.4c8.3,0.9,14.7,7.7,15.3,16c0.9,9.4-7.4,18.3-16.8,18.2
	c-23.4,0-46.8,0.1-70.1,0c0-3,0-6,0-8.9c23.9-0.3,47.8,0.3,71.7-0.3c7.4-1.9,8-13.4,0.5-15.6c-10.4-1.1-20.9,0.3-31.3-0.7
	C31.4,66.7,24.1,56.2,27.6,46.9z"/>
<path class="st0" d="M116.9,36.4c14.3-3.7,30.2,5.8,34.1,20c3.7,11.2-1,24-10,31.3c4.9,9.3,9.2,18.8,14,28.2c-1.5,3.1-3,6.3-4.5,9.5
	c-14.6,0-29.2-0.1-43.8,0c-10.2,0-19,9.6-18.4,19.7c0.1,9.6,8.6,18.3,18.3,18.4c11.1,0.1,22.2,0.1,33.3,0c-2.8-4.7-5-9.8-7.9-14.4
	c-9.1,0.2-18.3,0-27.4,0.1c0-3,0-6,0-9c11.3,0.1,22.6-0.1,33.9,0.1c3.9,7.8,7.9,15.5,12,23.3h10.4c0,3.2-0.1,6.4,0,9.6l-5.8-0.2
	c3.4,6,6.3,12.2,9.6,18.3h-10.8c-3.1-6-6.3-12.1-9.3-18.2c-13.2-0.2-26.5,0.2-39.7-0.2c-14.2-1.1-25.8-13.7-26.2-27.8
	c-0.3-14.5,11.6-28.2,26.3-29c13.1-0.6,26.3,0,39.4-0.3c-4-7.8-7.9-15.7-11.6-23.6c-6.1,1.8-12.8,2.2-18.9-0.1
	c-11.7-3.9-20.2-16-19.5-28.4C94.5,50.8,104.3,39,116.9,36.4z M103.9,66.6c0.9,11.6,13.4,20.2,24.5,16.9c-3.1-6.4-6.2-12.8-9.5-19.1
	l10.6,0.1c2.5,4.8,4.5,9.8,7.5,14.3c3.4-4.3,6.1-9.5,5.5-15.2c-0.3-10.2-9.8-19-20.1-18.2C111.6,45.2,102.6,55.9,103.9,66.6
	L103.9,66.6z"/>
<path class="st0" d="M230.9,35.6c3.1,0,6.1,0,9.2-0.1c1.1,19.3,0.1,38.6,0.5,57.9c-3.2,0.1-6.5,0.2-9.8,0.1
	C231,74.3,230.9,54.9,230.9,35.6z"/>
<path class="st0" d="M254.3,35.6c14.8,0.1,29.7-0.2,44.5,0.1c14.3,0.9,26.6,13.6,26.7,27.9c0.8,15.1-12,29.3-27.1,29.8
	c-14.7,0.2-29.4,0-44.1,0.1C254.3,74.3,254.3,54.9,254.3,35.6z M264.1,45c0.1,13.1,0,26.3,0,39.4c11-0.1,22,0.1,33-0.1
	s20.7-11.2,18.7-22.3c-0.9-9.3-9.4-17-18.7-17C286.1,44.9,275.1,45,264.1,45L264.1,45z"/>
<path class="st0" d="M188.3,115.7c9.6,18.9,18.2,38.3,27.6,57.3c-3.4,0-6.9-0.1-10.3-0.1c-5.8-11.8-11.2-23.7-17-35.5
	c-5.8,11.8-11.2,23.7-17,35.5c-3.3,0-6.6,0-10,0C170.1,153.7,180,135.1,188.3,115.7z"/>
<path class="st0" d="M226.8,116.4c3-0.7,6.1-0.9,9.2-0.7c8.1,16,15.7,32.2,24,48.1c7.9-16,15.8-32.1,23.7-48.1c2.9,0,5.9,0,8.8,0
	c0.1,6.9,0,13.7,0.1,20.6c-0.1,8.2-0.1,16.5,0,24.7c-0.1,4-0.1,8-0.1,12h-9.6c0.1-12,0-24.1,0.1-36.1c-6.1,12-11.9,24.1-17.9,36.1
	h-10.4c-6-12-11.8-24-17.8-36c-0.2,12,0,24.1-0.1,36.1c-3.3,0-6.5-0.1-9.8-0.1C226.9,154.1,227.2,135.3,226.8,116.4z"/>
<path class="st0" d="M306.1,115.7c19,0,38,0,57,0c0,3.3,0,6.5,0,9.8c-15.9-0.1-31.7,0-47.6,0c0,12.6,0,25.2,0,37.7
	c15.9,0,31.7,0.1,47.6,0c0,3.3,0,6.6,0,9.8c-19,0-38,0-57,0C306.1,153.9,306.1,134.8,306.1,115.7z"/>
<path class="st0" d="M337.4,139.6c8.6,0,17.1,0,25.7,0c11.1,0,22.1,0,33.2,0c0,3.2,0,6.4,0,9.6h-33.2c-8.6,0-17.2,0-25.8,0
	C337.4,145.9,337.4,142.8,337.4,139.6z"/>
<path class="st1" d="M103.9,66.6c-1.4-10.7,7.7-21.3,18.6-21.3c10.2-0.8,19.7,8,20.1,18.2c0.5,5.7-2.1,10.9-5.5,15.2
	c-3-4.5-5-9.5-7.5-14.3L119,64.3c3.3,6.3,6.4,12.7,9.5,19.1C117.3,86.8,104.8,78.2,103.9,66.6z"/>
<path class="st1" d="M315.5,125.5c15.9,0,31.7,0,47.6,0c0,4.7,0,9.3,0,14c-8.6,0-17.1,0-25.7,0c0,3.2,0,6.4-0.1,9.5
	c8.6,0,17.2,0,25.8,0c0,4.7,0,9.4,0,14.1c-15.9,0.1-31.7,0-47.6,0C315.6,150.6,315.6,138.1,315.5,125.5z"/>
<path class="st1" d="M171.6,173c5.8-11.8,11.2-23.7,17-35.5c5.7,11.8,11.2,23.7,17,35.5C194.3,173,182.9,173,171.6,173z"/>
</svg>
